{"title":"MyFriendsHotMom.Robbye.Bentley.XXX.1080p.XXXmegathor.flv","uid":10628624,"size":1606011557,"categoryP":"porn","categoryS":"movies","magnet":"?xt=urn:btih:40302d3e35c258c6af47428418b0c4e8cf9b2eeb&amp;dn=MyFriendsHotMom.Robbye.Bentley.XXX.1080p.XXXmegathor.flv&amp;tr=udp%3A%2F%2Ftracker.openbittorrent.com%3A80&amp;tr=udp%3A%2F%2Fopen.demonii.com%3A1337&amp;tr=udp%3A%2F%2Ftracker.coppersurfer.tk%3A6969&amp;tr=udp%3A%2F%2Fexodus.desync.com%3A6969","seeders":0,"leechers":2,"uploader":"XXXmegathor","files":1,"time":1406278920,"description":"MyFriendsHotMom.Robbye.Bentley.XXX.1080p.XXXmegathor\n\nSCREENIES &lt;a href=&quot;\nhttp://xxxtrapics.com/image/Rl&quot; rel=&quot;nofollow&quot; target=&quot;_NEW&quot;&gt;\nhttp://xxxtrapics.com/image/Rl&lt;/a&gt;\n\n\nDuration : 26mn 25s\nBit rate mode : Variable\nBit rate : 7 970 Kbps\nMaximum bit rate : 8 000 Kbps\nWidth : 1 920 pixels\nHeight : 1 080 pixels\nDisplay aspect ratio : 16:9\nFrame rate mode : Constant\nFrame rate : 29.970 fps\nColor space : YUV\nChroma subsampling : 4:2:0\nBit depth : 8 bits\nScan type : Progressive\nBits/(Pixel*Frame) : 0.128\nStream size : 1.47 GiB (98%)\nLanguage : English\nEncoded date : UTC 2012-03-27 19:15:35\nTagged date : UTC 2012-03-27 19:15:35\n\nAudio\nID : 2\nFormat : AAC\nFormat/Info : Advanced Audio Codec\nFormat profile : LC\nCodec ID : 40\nDuration : 26mn 25s\nBit rate mode : Constant\nBit rate : 128 Kbps\nChannel(s) : 2 channels\nChannel positions : Front: L R\nSampling rate : 48.0 KHz\nCompression mode : Lossy\nStream size : 24.2 MiB (2%)\nLanguage : English\nEncoded date : UTC 2012-03-27 19:15:35\nTagged date : UTC 2012-03-27 19:15:35\n\n\n","torrent":{"xt":"urn:btih:40302d3e35c258c6af47428418b0c4e8cf9b2eeb","amp;dn":"MyFriendsHotMom.Robbye.Bentley.XXX.1080p.XXXmegathor.flv","amp;tr":["udp%3A%2F%2Ftracker.openbittorrent.com%3A80","udp%3A%2F%2Fopen.demonii.com%3A1337","udp%3A%2F%2Ftracker.coppersurfer.tk%3A6969","udp%3A%2F%2Fexodus.desync.com%3A6969"],"infoHash":"40302d3e35c258c6af47428418b0c4e8cf9b2eeb","infoHashBuffer":{"type":"Buffer","data":[64,48,45,62,53,194,88,198,175,71,66,132,24,176,196,232,207,155,46,235]},"announce":[],"urlList":[]}}